<?xml version="1.0" standalone="no"?>
<!DOCTYPE svg PUBLIC "-//W3C//DTD SVG 20010904//EN"
 "http://www.w3.org/TR/2001/REC-SVG-20010904/DTD/svg10.dtd">
<svg version="1.0" xmlns="http://www.w3.org/2000/svg"
 width="160.000000pt" height="153.000000pt" viewBox="0 0 160.000000 153.000000"
 preserveAspectRatio="xMidYMid meet" >

<g transform="translate(0.000000,153.000000) scale(0.100000,-0.100000)"
fill="white" stroke="none">
<path d="M1072 1466 c-47 -50 -62 -75 -72 -115 -7 -28 -10 -57 -7 -64 3 -7 -1
-24 -9 -38 -14 -26 -18 -87 -6 -105 4 -6 33 -16 66 -21 l58 -10 -5 44 c-2 24
-12 52 -21 62 -21 24 -20 48 3 61 11 5 34 33 52 60 40 61 68 65 84 10 5 -19
13 -40 18 -47 4 -6 5 -49 2 -95 -4 -69 -8 -85 -25 -97 -12 -8 -20 -25 -20 -41
0 -27 -20 -48 -96 -100 -12 -8 -47 -35 -79 -60 -82 -65 -117 -90 -126 -90 -5
0 -9 14 -9 30 0 36 -21 48 -55 32 -18 -8 -26 -22 -31 -52 -4 -24 -14 -45 -24
-50 -16 -8 -19 -4 -25 31 -7 43 -30 62 -47 38 -5 -8 -6 -43 -3 -79 6 -69 -4
-73 -24 -9 -15 46 -43 72 -72 67 -21 -3 -25 -11 -35 -71 -10 -60 -9 -68 5 -65
9 2 20 20 25 41 5 20 12 37 16 37 6 0 30 -82 30 -105 0 -22 -24 -18 -91 15
-55 27 -62 28 -97 16 -45 -16 -118 -27 -194 -30 -79 -4 -163 -54 -189 -114
-10 -23 -30 -59 -44 -79 -14 -21 -25 -43 -25 -51 0 -19 60 14 88 48 22 29 94
58 195 80 27 6 61 20 76 31 26 19 33 20 107 10 55 -8 85 -18 101 -32 15 -15
30 -20 47 -17 18 4 26 1 26 -8 0 -8 4 -14 10 -14 5 0 6 -8 3 -17 -6 -15 -4
-16 9 -5 14 11 17 10 22 -6 6 -17 12 -18 52 -11 57 11 107 -8 126 -48 9 -19
23 -30 43 -33 40 -7 97 -39 90 -50 -3 -5 -45 -9 -93 -8 -83 1 -90 0 -153 -36
-37 -20 -119 -54 -182 -75 -128 -43 -154 -55 -140 -64 6 -4 72 -9 147 -13 118
-6 138 -10 147 -25 7 -14 4 -24 -13 -41 -21 -21 -32 -23 -125 -23 -57 0 -103
-3 -103 -7 0 -13 105 -58 136 -58 17 0 56 5 85 11 30 6 81 16 114 23 48 9 63
17 80 41 24 37 131 135 146 135 15 0 100 75 120 106 9 15 14 36 11 52 -7 38
-61 88 -111 103 -41 12 -52 36 -15 32 21 -3 59 13 85 35 14 11 18 10 23 -4 6
-15 9 -15 30 5 21 20 26 21 70 9 44 -12 50 -17 74 -68 38 -82 71 -128 107
-150 47 -29 65 -24 29 8 -17 15 -35 38 -39 51 -15 48 -86 181 -107 201 -24 22
-16 25 39 14 22 -4 33 -14 42 -41 14 -37 63 -98 92 -113 9 -6 25 -7 34 -4 13
6 12 9 -10 23 -16 10 -39 45 -60 91 -19 41 -43 82 -55 92 -28 22 -26 24 20 20
37 -4 43 -8 65 -52 25 -49 67 -90 91 -90 8 0 14 5 14 10 0 6 -6 10 -14 10 -16
0 -68 113 -54 118 5 3 5 9 0 15 -5 7 -12 26 -16 42 -4 17 -17 45 -28 64 -20
32 -23 33 -72 28 -43 -4 -54 -9 -76 -38 -51 -69 -100 -113 -112 -101 -9 9 -6
19 13 39 46 49 83 177 69 236 -6 28 -4 46 7 68 11 22 12 37 5 59 -8 21 -7 41
4 77 29 97 3 283 -46 328 -22 20 -85 44 -116 45 -14 0 -43 -23 -82 -64z m373
-716 c4 -6 -8 -10 -30 -10 -22 0 -34 4 -30 10 3 6 17 10 30 10 13 0 27 -4 30
-10z"/>
</g>
</svg>
