<?xml version="1.0" standalone="no"?>
<!DOCTYPE svg PUBLIC "-//W3C//DTD SVG 20010904//EN"
 "http://www.w3.org/TR/2001/REC-SVG-20010904/DTD/svg10.dtd">
<svg version="1.0" xmlns="http://www.w3.org/2000/svg"
 width="363.000000pt" height="199.000000pt" viewBox="0 0 363.000000 199.000000"
 preserveAspectRatio="xMidYMid meet">
<g transform="translate(0.000000,199.000000) scale(0.100000,-0.100000)"
fill="white" stroke="none">
<path d="M731 1791 c-10 -6 0 -8 30 -4 24 3 42 3 39 0 -3 -3 -30 -8 -59 -11
-32 -3 -61 -12 -70 -22 -13 -14 -11 -13 14 2 18 11 8 -2 -25 -33 -41 -38 -57
-48 -63 -37 -4 7 -15 10 -24 7 -12 -5 -14 -3 -8 8 4 8 -7 1 -25 -16 -38 -35
-90 -112 -90 -134 0 -8 11 8 25 35 14 28 39 63 57 80 l32 29 -33 -39 c-60 -71
-84 -144 -61 -187 8 -15 7 -21 -4 -25 -11 -4 -14 -14 -10 -29 3 -13 -2 -47
-11 -76 -15 -50 -13 -83 8 -117 1 -1 -47 -5 -108 -8 -60 -3 -115 -9 -121 -15
-6 -5 -13 -6 -17 -3 -3 3 -33 -35 -66 -84 -48 -72 -66 -92 -88 -95 l-28 -4 30
-1 c27 -2 35 7 89 88 32 50 61 90 63 90 6 0 -1 -11 -75 -122 -40 -61 -48 -68
-78 -68 -18 0 -36 -5 -39 -10 -7 -11 -5 -12 61 -27 l42 -10 46 64 c26 36 42
62 36 58 -17 -11 -10 9 13 35 19 22 31 25 92 26 39 1 87 8 108 17 l37 16 0
-28 c0 -42 25 -118 54 -161 l25 -38 -37 -7 c-20 -4 -69 -24 -108 -46 -39 -21
-75 -35 -79 -31 -5 4 -5 1 0 -6 8 -15 -45 -232 -57 -232 -4 0 -5 8 -1 18 3 9
3 14 -1 10 -4 -3 -9 -14 -10 -24 -2 -10 -9 -20 -16 -22 -9 -3 -10 0 -4 9 6 12
5 12 -8 1 -9 -8 -14 -20 -12 -27 5 -11 13 -11 46 -1 41 11 42 13 77 109 l37
99 52 17 c29 10 66 31 82 46 27 26 50 27 50 3 0 -7 -4 -7 -13 1 -11 8 -19 5
-36 -13 -13 -14 -36 -30 -52 -37 -16 -6 -28 -14 -25 -16 7 -7 48 16 77 44 l26
24 27 -35 c35 -47 102 -85 165 -95 28 -4 48 -5 46 -1 -3 4 -25 10 -49 12 -44
5 -143 54 -132 65 3 4 14 -1 24 -10 25 -23 86 -47 120 -47 16 0 37 -9 47 -20
18 -20 17 -20 -7 -20 -20 0 -29 -7 -37 -31 -26 -76 -5 -155 61 -226 39 -42 48
-58 46 -85 l-1 -33 -4 32 c-3 21 -21 51 -52 85 -26 29 -51 60 -54 68 -4 11 -6
12 -6 1 -1 -7 22 -38 49 -68 46 -50 57 -77 52 -124 -1 -4 11 -17 26 -30 l27
-24 -20 25 c-16 20 -14 20 8 -3 33 -34 42 -31 27 9 -7 16 -12 52 -13 81 -2 40
-10 62 -33 96 -25 34 -32 57 -36 106 -3 46 -1 61 8 57 6 -2 30 -10 53 -17 22
-6 38 -15 36 -19 -2 -3 1 -40 6 -81 7 -51 17 -81 31 -96 12 -13 19 -25 16 -28
-6 -7 -40 41 -50 70 l-6 20 -1 -20 c-1 -11 17 -40 40 -65 22 -25 38 -39 34
-32 -8 17 1 15 33 -5 33 -22 43 -34 37 -50 -2 -6 4 -17 13 -25 11 -9 14 -10 8
0 -4 6 -3 12 2 12 11 0 37 -29 45 -50 4 -11 6 -11 6 -1 1 7 -10 26 -24 43 -14
16 -25 37 -25 45 0 9 -21 37 -47 62 -46 45 -46 47 -47 114 -1 66 -1 67 26 67
18 0 31 8 39 21 11 21 11 21 30 2 18 -18 19 -22 4 -62 -28 -80 -14 -181 33
-249 21 -30 41 -99 22 -72 -8 10 -10 11 -8 2 2 -8 8 -13 13 -13 15 0 54 -40
52 -53 -1 -6 6 -10 17 -8 10 2 15 -1 12 -6 -3 -5 7 -8 22 -6 15 2 19 1 9 -2
-15 -5 -7 -14 39 -50 31 -24 58 -44 60 -44 10 0 0 9 -42 39 -25 18 -43 35 -40
38 3 3 22 -9 42 -27 41 -35 91 -60 124 -60 30 0 24 13 -14 34 -19 10 -48 33
-66 51 l-31 32 69 -5 c39 -2 82 -2 96 2 28 7 36 26 11 26 -52 0 -227 89 -222
112 1 6 -5 13 -13 15 -13 4 -13 3 0 -7 12 -9 9 -10 -15 -5 -35 8 -31 4 -40 34
-5 18 -4 22 6 16 7 -5 0 8 -15 28 -16 20 -32 34 -37 31 -12 -7 -29 40 -29 82
0 42 13 69 37 78 14 6 13 2 -4 -14 -18 -16 -23 -31 -21 -68 l1 -47 4 45 c3 31
12 54 31 74 15 16 22 26 16 23 -8 -4 -12 2 -11 16 0 12 -3 30 -8 40 -6 15 -4
16 18 8 25 -10 47 1 47 23 0 5 -6 2 -13 -7 -10 -15 -12 -13 -12 16 0 27 3 33
17 29 12 -3 21 4 27 21 5 14 14 28 20 31 5 4 3 -7 -5 -24 -9 -16 -23 -34 -32
-40 -9 -5 -12 -10 -6 -10 24 0 56 55 62 108 2 9 11 6 30 -8 16 -12 48 -24 70
-27 29 -4 43 -11 48 -25 7 -22 60 -58 87 -58 10 0 37 -10 60 -21 42 -22 105
-69 91 -69 -4 0 -17 8 -28 17 -16 13 -16 12 2 -7 23 -24 23 -25 38 -6 18 25
18 28 -2 52 -14 18 -15 18 -4 -4 7 -13 9 -26 7 -29 -3 -2 -8 5 -12 16 -3 11
-18 30 -32 41 -14 11 -23 24 -18 28 4 4 10 2 12 -4 2 -6 14 -9 26 -7 14 2 33
-6 52 -22 l30 -26 -30 17 -30 16 24 -20 c27 -22 53 -19 44 5 -5 12 -3 14 8 8
8 -4 -4 11 -26 34 -38 40 -52 51 -40 31 10 -17 -5 -11 -38 14 -46 35 -117 66
-153 66 -18 0 -37 8 -45 18 -11 14 -11 15 1 5 8 -7 28 -13 44 -13 17 0 50 -9
74 -20 23 -10 42 -17 42 -14 0 11 -87 44 -117 44 -17 0 -34 4 -38 10 -3 5 -13
6 -22 3 -11 -4 -14 -3 -9 5 4 7 2 10 -7 7 -7 -3 -30 1 -50 10 -44 18 -98 20
-117 3 -12 -11 -12 -10 0 6 11 14 23 17 60 13 25 -2 54 -7 65 -11 11 -3 7 0
-10 8 -49 24 -98 20 -126 -11 -13 -14 -18 -23 -11 -19 17 10 15 -9 -3 -24 -8
-7 -15 -19 -15 -26 0 -22 -14 -16 -46 19 l-29 32 30 -27 31 -27 13 22 c13 20
13 21 -2 8 -15 -12 -22 -9 -57 23 -40 36 -57 46 -44 25 4 -7 -1 -10 -12 -7
-11 2 -19 8 -19 15 0 11 -88 93 -100 93 -4 0 16 -19 43 -42 28 -24 49 -45 46
-47 -2 -3 -21 12 -42 31 -20 20 -50 40 -66 44 -30 7 -96 66 -116 103 -6 12
-17 21 -25 21 -8 0 -15 5 -15 10 0 19 34 -7 65 -49 17 -22 34 -41 38 -41 10 0
-73 100 -85 101 -4 1 -12 2 -17 3 -5 0 -13 4 -17 9 -4 4 -17 7 -29 7 -15 0
-27 11 -38 36 -10 19 -15 39 -12 43 2 5 -17 29 -44 54 -37 35 -54 44 -71 40
-21 -6 -22 -4 -15 28 4 19 8 52 7 74 0 35 1 37 8 15 l9 -25 -2 25 c-1 14 -7
24 -12 23 -6 -1 -21 7 -34 17 l-24 18 34 17 c19 10 46 28 61 42 14 14 29 25
32 24 15 -3 15 1 0 30 -8 17 -11 28 -5 25 6 -4 11 -2 11 3 0 6 -5 11 -12 11
-6 0 -8 3 -4 7 4 5 14 0 21 -11 13 -18 16 -18 55 -2 61 24 77 20 143 -35 51
-43 65 -50 90 -45 24 5 28 3 23 -10 -7 -19 7 -48 46 -92 19 -23 27 -40 23 -53
-5 -15 -1 -19 17 -19 17 0 19 -3 9 -9 -7 -5 -11 -14 -7 -19 8 -14 -23 -31 -64
-35 -17 -2 -39 -12 -48 -22 -11 -11 -12 -15 -3 -10 11 6 13 4 6 -11 -16 -37
-16 -69 -1 -89 15 -19 15 -19 16 12 0 17 7 39 16 47 16 17 69 22 78 8 3 -5 -8
-6 -25 -4 -35 5 -59 -12 -58 -42 1 -19 2 -18 8 4 7 24 11 25 79 26 93 2 116
19 109 82 -2 23 0 45 5 48 31 19 -32 189 -83 226 -16 12 -29 29 -28 37 0 9 3
11 5 5 6 -13 84 -97 84 -90 0 8 -79 97 -85 96 -3 -1 -22 13 -41 29 -46 41
-129 83 -179 92 -39 6 -39 7 -7 8 34 1 104 -30 182 -81 40 -26 41 -26 15 -4
-54 47 -163 98 -200 95 -35 -3 -50 4 -50 24 0 15 -55 20 -74 8z m-63 -589 c11
-15 27 -42 36 -60 17 -33 17 -34 -10 -58 l-26 -25 -30 33 c-49 56 -69 118 -52
162 5 14 10 13 35 -4 15 -12 37 -33 47 -48z m34 -203 c-13 -5 -20 -14 -16 -20
4 -8 9 -7 15 2 5 8 6 -3 2 -26 -3 -22 -10 -42 -15 -43 -4 -2 -5 -8 -2 -13 7
-13 34 9 34 27 0 15 38 39 48 30 3 -3 1 -6 -4 -6 -5 0 -10 -20 -12 -45 -2 -49
7 -58 23 -23 6 13 18 24 28 26 15 3 16 0 6 -25 -7 -19 -7 -29 0 -31 6 -2 8 -9
4 -15 -3 -7 4 -3 17 8 14 12 24 16 27 9 2 -6 10 -20 17 -30 12 -16 16 -16 30
-5 9 8 14 16 11 19 -2 3 9 20 25 39 17 19 28 38 25 44 -13 20 9 7 53 -32 26
-23 46 -45 45 -50 -2 -5 12 -15 30 -23 67 -31 91 -66 65 -96 -11 -12 -10 -12
5 -1 9 7 17 21 17 30 0 17 -55 66 -92 81 -15 6 -17 9 -7 9 22 1 109 -67 109
-85 0 -31 -20 -54 -48 -53 -15 0 -22 3 -15 5 7 3 9 12 6 20 -5 13 -7 13 -14 2
-7 -10 -9 -9 -9 5 0 9 -7 17 -15 17 -9 0 -34 12 -56 27 -32 21 -42 24 -49 14
-5 -9 7 -28 38 -57 49 -47 70 -60 32 -19 -13 14 -19 25 -13 25 6 0 22 -15 36
-34 l26 -33 -52 9 c-72 13 -194 60 -247 94 -65 41 -150 135 -150 165 0 32 26
69 48 68 12 0 10 -3 -6 -10z"/>
<path d="M1227 1254 c-3 -3 -11 -6 -19 -8 -8 -1 -27 -12 -43 -24 -27 -22 -28
-22 -4 -18 13 2 23 9 21 16 -1 6 3 8 9 4 7 -4 9 -3 6 3 -3 5 -1 10 6 10 7 0
21 4 32 8 11 4 6 -2 -11 -13 -41 -26 -61 -74 -45 -109 6 -14 10 -27 8 -30 -10
-9 -28 57 -22 79 5 20 5 21 -5 5 -15 -23 -6 -57 21 -88 11 -13 18 -18 14 -11
-8 16 5 15 29 -3 11 -8 41 -18 68 -21 62 -8 87 -26 72 -51 -19 -30 -103 -24
-147 10 -20 15 -38 27 -42 27 -3 0 -5 -26 -3 -57 3 -57 4 -58 33 -60 l30 -2
-30 9 c-44 12 0 12 62 1 29 -6 65 -6 89 -1 44 10 94 58 94 92 0 18 3 16 23
-13 49 -73 148 -98 250 -63 41 14 47 19 47 44 0 16 -6 35 -12 42 -13 13 -18
89 -7 98 4 3 10 24 14 48 7 41 6 43 -25 53 -17 6 -29 13 -27 15 10 10 58 -18
66 -38 4 -12 11 -17 14 -11 4 5 -4 20 -17 32 -21 20 -36 23 -125 24 -56 1 -96
0 -90 -2 6 -2 -6 -13 -27 -25 -53 -29 -84 -79 -84 -131 l0 -43 -33 33 c-22 22
-47 36 -73 40 -74 12 -85 16 -91 32 -7 19 21 43 51 43 11 0 39 -10 63 -21 24
-12 46 -20 47 -18 2 2 7 22 10 44 l7 40 -78 2 c-43 2 -87 5 -99 8 -12 2 -24 2
-27 -1z m484 -90 c22 -21 27 -34 27 -79 0 -67 -18 -86 -87 -93 -46 -4 -53 -2
-81 26 -24 24 -30 39 -30 72 0 53 14 78 53 96 41 18 84 10 118 -22z"/>
<path d="M1905 1250 c-16 -4 -46 -14 -65 -24 l-35 -17 25 22 25 21 -25 -14
c-14 -9 -25 -19 -26 -24 -2 -19 -16 -44 -23 -40 -9 6 -14 -26 -15 -90 -1 -36
4 -58 17 -71 9 -11 17 -24 17 -29 0 -5 -5 -2 -10 6 -6 9 -10 10 -10 3 0 -19
50 -53 67 -46 9 4 14 2 11 -3 -3 -5 24 -10 62 -12 80 -4 128 13 173 60 17 18
27 27 23 21 -4 -7 -3 -20 2 -30 7 -11 10 10 10 69 1 97 -15 133 -77 175 -19
13 -30 23 -25 23 5 0 21 -7 34 -16 24 -16 24 -16 9 1 -18 19 -110 27 -164 15z
m88 -61 c31 -14 47 -48 47 -100 0 -101 -129 -137 -175 -49 -19 37 -19 73 0
110 25 48 75 63 128 39z"/>
<path d="M2943 1251 c-18 -5 -44 -16 -57 -25 -30 -19 -40 -20 -30 -3 4 6 -2 4
-13 -6 -16 -14 -22 -15 -26 -5 -3 7 -4 -3 -2 -22 1 -19 -1 -43 -5 -55 -6 -14
-9 -6 -9 32 -1 28 4 55 9 58 24 15 6 22 -49 21 -68 -1 -80 -8 -57 -31 23 -23
24 -236 1 -255 -26 -22 -17 -26 50 -26 36 1 65 5 65 9 0 5 6 5 13 1 7 -5 7 -1
-3 12 -22 29 -24 30 -17 11 4 -11 3 -16 -3 -12 -6 3 -10 30 -9 58 0 45 2 49
10 27 6 -14 22 -38 37 -54 15 -16 21 -26 15 -22 -19 10 -16 1 4 -15 11 -10 14
-10 9 -1 -9 15 -6 15 37 -3 81 -34 189 -4 234 64 30 45 32 127 3 164 -24 30
-24 34 -6 34 8 0 12 -6 9 -13 -2 -6 1 -15 7 -19 8 -5 11 1 8 16 -1 13 -7 24
-13 24 -5 0 -16 4 -24 9 -10 6 -12 5 -7 -2 10 -17 2 -15 -36 7 -40 23 -102 32
-145 22z m99 -62 c28 -15 50 -73 42 -114 -18 -97 -138 -116 -183 -28 -45 89
53 189 141 142z"/>
<path d="M3178 1253 c-19 -5 -25 -33 -8 -33 6 0 10 -50 10 -130 0 -80 -4 -130
-10 -130 -5 0 -10 -7 -10 -15 0 -21 105 -22 113 0 4 8 2 17 -4 21 -6 3 -9 38
-8 80 1 41 -1 78 -5 82 -4 4 -6 -32 -4 -81 2 -48 0 -87 -4 -87 -5 0 -8 46 -8
102 0 56 4 98 8 93 5 -6 44 -50 88 -100 44 -49 86 -99 93 -110 8 -11 -12 9
-45 45 -32 35 -72 78 -88 95 l-28 30 25 -33 c14 -17 51 -60 81 -95 l55 -62 55
3 c41 3 55 8 58 20 1 10 0 71 -3 137 l-6 120 1 -123 c1 -67 -2 -122 -6 -122
-13 0 -9 245 3 257 19 19 0 33 -47 33 -33 0 -44 -4 -44 -16 0 -9 -5 -12 -12
-8 -10 6 -9 3 0 -8 9 -11 13 -41 11 -87 -1 -39 1 -74 5 -79 4 -4 6 32 4 80 -2
47 0 84 5 81 4 -2 7 -47 7 -100 l0 -95 -34 40 c-18 23 -62 73 -97 113 -35 39
-63 76 -61 81 1 5 -6 4 -17 -2 -11 -5 -30 -10 -43 -9 -23 1 -23 1 2 9 20 6 21
8 5 8 -11 0 -28 -2 -37 -5z"/>
<path d="M2110 1239 c0 -5 -4 -7 -10 -4 -16 10 -11 -1 7 -16 15 -12 16 -12 8
1 -8 13 -7 13 8 1 14 -11 17 -33 17 -131 0 -98 -3 -120 -17 -131 -15 -12 -16
-12 -8 1 8 13 7 13 -8 1 -18 -15 -23 -26 -7 -16 6 3 10 1 10 -4 0 -7 26 -11
65 -11 39 0 65 4 65 11 0 5 6 7 13 3 7 -5 7 -1 -3 12 -22 30 -24 30 -16 9 5
-13 4 -16 -2 -10 -6 6 -12 29 -14 53 -3 31 0 42 10 42 19 0 91 -81 92 -102 0
-16 12 -18 115 -18 105 0 134 7 105 25 -5 3 -10 24 -10 46 0 38 1 39 38 39 20
0 48 3 62 5 22 5 23 4 5 -5 l-20 -10 20 3 c11 1 20 9 20 16 0 8 6 16 14 19 9
3 11 0 6 -9 -5 -9 -1 -7 11 3 34 30 18 178 -20 178 -5 0 0 -10 12 -23 12 -13
22 -27 22 -31 0 -4 -11 5 -24 21 -23 27 -29 28 -135 33 -87 4 -111 2 -111 -8
0 -8 -5 -10 -12 -6 -10 6 -10 4 0 -8 9 -12 13 -50 11 -133 -1 -64 2 -119 5
-123 4 -3 6 53 4 126 -2 73 0 132 5 132 10 0 9 -258 -1 -264 -5 -3 -32 19 -61
48 l-52 53 28 17 28 17 -22 -19 c-12 -11 -20 -22 -16 -25 9 -10 41 36 35 52
-3 8 -1 12 5 8 15 -9 -1 78 -18 99 -8 9 -28 23 -46 31 -39 16 -213 18 -213 2z"/>
</g>
</svg>
